<svg id="Layer_1" data-name="Layer 1" xmlns="http://www.w3.org/2000/svg" xmlns:xlink="http://www.w3.org/1999/xlink" viewBox="0 0 351.03 302.66"><defs><linearGradient id="linear-gradient" x1="284.94" y1="-144.14" x2="82.82" y2="348.74" gradientUnits="userSpaceOnUse"><stop offset="0.01"/><stop offset="0.13" stop-opacity="0.69"/><stop offset="1" stop-opacity="0"/></linearGradient><linearGradient id="linear-gradient-2" x1="224.04" y1="-180.02" x2="166.6" y2="313.26" xlink:href="#linear-gradient"/><linearGradient id="linear-gradient-3" x1="210.98" y1="-156.71" x2="158.63" y2="292.83" xlink:href="#linear-gradient"/><linearGradient id="linear-gradient-4" x1="245.49" y1="-23.29" x2="152.01" y2="260.52" xlink:href="#linear-gradient"/><linearGradient id="linear-gradient-5" x1="223.47" y1="103.1" x2="257.38" y2="103.1" xlink:href="#linear-gradient"/><linearGradient id="linear-gradient-6" x1="786.96" y1="4088" x2="820.86" y2="4088" gradientTransform="translate(-329.39 4314.94) rotate(-162.31)" xlink:href="#linear-gradient"/><linearGradient id="linear-gradient-7" x1="-200.65" y1="4176.88" x2="-166.75" y2="4176.88" gradientTransform="translate(648.11 4366.62) rotate(171.63)" xlink:href="#linear-gradient"/><linearGradient id="linear-gradient-8" x1="-1220.74" y1="3822.45" x2="-1186.84" y2="3822.45" gradientTransform="translate(1687.9 3898.77) rotate(141.5)" xlink:href="#linear-gradient"/><linearGradient id="linear-gradient-9" x1="-1165.81" y1="3870.36" x2="-1131.91" y2="3870.36" gradientTransform="translate(1687.9 3898.77) rotate(141.5)" xlink:href="#linear-gradient"/><linearGradient id="linear-gradient-10" x1="127.24" y1="104.84" x2="140.33" y2="136.09" xlink:href="#linear-gradient"/><linearGradient id="linear-gradient-11" x1="1764.79" y1="890.37" x2="1798.69" y2="890.37" gradientTransform="translate(-1637.48 1013.14) rotate(-53.39)" xlink:href="#linear-gradient"/><linearGradient id="linear-gradient-12" x1="185.22" y1="110.61" x2="175.84" y2="47.91" xlink:href="#linear-gradient"/><linearGradient id="linear-gradient-13" x1="-1217.13" y1="3925.97" x2="-1183.23" y2="3925.97" gradientTransform="translate(1687.9 3898.77) rotate(141.5)" xlink:href="#linear-gradient"/><linearGradient id="linear-gradient-14" x1="202.18" y1="109.5" x2="211.9" y2="109.5" xlink:href="#linear-gradient"/><linearGradient id="linear-gradient-15" x1="173.19" y1="104.64" x2="182.91" y2="104.64" xlink:href="#linear-gradient"/><linearGradient id="linear-gradient-16" x1="126.97" y1="140.55" x2="136.69" y2="140.55" xlink:href="#linear-gradient"/><linearGradient id="linear-gradient-17" x1="195.46" y1="156.71" x2="205.18" y2="156.71" xlink:href="#linear-gradient"/><linearGradient id="linear-gradient-18" x1="228.91" y1="134.1" x2="238.63" y2="134.1" xlink:href="#linear-gradient"/><linearGradient id="linear-gradient-19" x1="168.47" y1="191.55" x2="178.19" y2="191.55" xlink:href="#linear-gradient"/><linearGradient id="linear-gradient-20" x1="106.16" y1="131.18" x2="115.88" y2="131.18" xlink:href="#linear-gradient"/><linearGradient id="linear-gradient-21" x1="117.74" y1="89.85" x2="142.49" y2="89.85" gradientUnits="userSpaceOnUse"><stop offset="0.01" stop-color="#fff"/><stop offset="0.13" stop-color="#fff" stop-opacity="0.69"/><stop offset="1" stop-color="#fff" stop-opacity="0"/></linearGradient><linearGradient id="linear-gradient-22" x1="254.51" y1="190.15" x2="263.15" y2="190.15" xlink:href="#linear-gradient-21"/><linearGradient id="linear-gradient-23" x1="104.16" y1="156.83" x2="134.55" y2="156.83" xlink:href="#linear-gradient-21"/><linearGradient id="linear-gradient-24" x1="182.13" y1="129.39" x2="206.4" y2="129.39" xlink:href="#linear-gradient-21"/><linearGradient id="linear-gradient-25" x1="198.96" y1="70.01" x2="227.89" y2="70.01" xlink:href="#linear-gradient-21"/><linearGradient id="linear-gradient-26" x1="148.36" y1="213.54" x2="183.51" y2="213.54" xlink:href="#linear-gradient-21"/><linearGradient id="linear-gradient-27" x1="101.35" y1="189.02" x2="131.86" y2="189.02" xlink:href="#linear-gradient-21"/><linearGradient id="linear-gradient-28" x1="189.44" y1="176.24" x2="222.01" y2="176.24" xlink:href="#linear-gradient-21"/><linearGradient id="linear-gradient-29" x1="84.5" y1="174.4" x2="272.94" y2="174.4" xlink:href="#linear-gradient"/><linearGradient id="linear-gradient-30" x1="80.45" y1="184.69" x2="269.45" y2="184.69" xlink:href="#linear-gradient"/><linearGradient id="linear-gradient-31" x1="158.63" y1="153.27" x2="170.46" y2="112.72" xlink:href="#linear-gradient"/><linearGradient id="linear-gradient-32" x1="152.26" y1="163.99" x2="162.69" y2="128.23" xlink:href="#linear-gradient"/></defs><title>Noodles</title><path d="M359.3,197.69c-6.79,37.95-30.35,69.49-58.72,87.52s-61.1,23.79-93.13,23.36c-18.25-.24-36.91-2.55-53.44-11.93-.83-.47-1.65-1-2.47-1.46-2.45-1.51-4.86-3.15-7.24-4.84-8.56-6.08-16.85-12.84-26.2-16.76-14.07-5.88-29.46-4.86-44-8.93C38,254.49,11.43,211,9.75,166S28.86,77,59.33,51.24C88,27,125.53,16.55,160.16,21.25c16.77,2.28,29.7-5.63,46-10.09C225.05,6,244.64,4.29,263.83,7.7c32.24,5.74,63.41,27.27,79.71,61.48,10,21,14,45.46,16.39,69.6C361,150.11,361,182,359.3,197.69Z" transform="translate(-9.66 -5.93)" fill="#9d8301" opacity="0.18" style="isolation:isolate"/><ellipse cx="156.42" cy="169.26" rx="92.32" ry="100.52" fill="url(#linear-gradient)"/><circle cx="175.99" cy="143.79" r="106.85" fill="#9d8301"/><path d="M292.49,149.71A106.51,106.51,0,0,1,258.36,228q-2.19,2-4.49,3.94c-.37.33-.74.63-1.12.93-1.61,1.3-3.27,2.56-5,3.76A106.88,106.88,0,0,1,80.45,130.89c.59-3.36,1.35-6.66,2.25-9.91.55-2,1.15-3.91,1.8-5.83,1.08-3.13,2.29-6.22,3.65-9.22a106.87,106.87,0,0,1,204.34,43.78Z" transform="translate(-9.66 -5.93)" fill="url(#linear-gradient-2)"/><circle cx="175.99" cy="143.79" r="97.37" fill="url(#linear-gradient-3)"/><path d="M126.88,84.59A48.51,48.51,0,0,0,117,98.9c-2.11,5-3,10.36-4.84,15.44s-4.47,9.8-5.89,15c-1.79,6.56-1.47,13.5-.52,20.23a111.58,111.58,0,0,0,33.46,64.79,50,50,0,0,0,13,9.42c7.37,3.42,15.7,3.94,23.8,4.4,12.31.7,24.63,1.39,37,1.27,9.6-.09,19.54-.77,28.06-5.2,12.08-6.28,19.45-19.31,22.42-32.6s2.16-27.09,1.81-40.7c-.32-12.66-.26-25.5-3.55-37.73C249.93,69.51,199.25,50,158.63,64.33A81.29,81.29,0,0,0,126.88,84.59Z" transform="translate(-9.66 -5.93)" fill="#9d8301"/><path d="M126.88,84.59A48.51,48.51,0,0,0,117,98.9c-2.11,5-3,10.36-4.84,15.44s-4.47,9.8-5.89,15c-1.79,6.56-1.47,13.5-.52,20.23a111.58,111.58,0,0,0,33.46,64.79,50,50,0,0,0,13,9.42c7.37,3.42,15.7,3.94,23.8,4.4,12.31.7,24.63,1.39,37,1.27,9.6-.09,19.54-.77,28.06-5.2,12.08-6.28,19.45-19.31,22.42-32.6s2.16-27.09,1.81-40.7c-.32-12.66-.26-25.5-3.55-37.73C249.93,69.51,199.25,50,158.63,64.33A81.29,81.29,0,0,0,126.88,84.59Z" transform="translate(-9.66 -5.93)" fill="url(#linear-gradient-4)"/><path d="M125.71,175.73a29.13,29.13,0,0,1-9.29-1.65c-11.92-4-21.28-13.89-23.84-25.12-2.83-12.44,3.11-25.87,13.83-31.22a33.94,33.94,0,0,1,13.15-3.2,55.64,55.64,0,0,1,28.76,5.94L146.5,124a51.62,51.62,0,0,0-26.68-5.51,29.9,29.9,0,0,0-11.62,2.79c-9,4.48-14.11,16.23-11.72,26.75,2.26,9.9,10.59,18.62,21.22,22.22,3.53,1.19,8.7,2.25,13.31.56,3.73-1.38,6.74-4.43,9-6.94a70.57,70.57,0,0,0,16.77-36.41c.64-4.51.84-9.2,1-13.73a129.88,129.88,0,0,1,1.31-15.63c1.15-7,4.69-19.75,15.42-25.93,6.75-3.88,14.64-4.24,22.81-4.28,6.5,0,12.35.09,18.05,1.86,6.85,2.14,12.09,6.53,14.36,12L226,83.35c-1.82-4.4-6.15-7.95-11.86-9.74C209,72,203.5,71.9,197.33,71.93c-7.61,0-14.93.35-20.83,3.75C167.19,81,164.06,92.45,163,98.79a128.05,128.05,0,0,0-1.25,15.15c-.2,4.63-.41,9.41-1.08,14.12A74.59,74.59,0,0,1,143,166.56c-2.52,2.86-6,6.36-10.56,8A19.37,19.37,0,0,1,125.71,175.73Z" transform="translate(-9.66 -5.93)" fill="#9d8301"/><path d="M237.7,87.94a2.93,2.93,0,0,0-2.56-1.41,13.83,13.83,0,0,0-3.6.46l-1.26.26c-8.19,1.56-16.29-.63-24.13-2.75-1.75-.48-3.5-1-5.24-1.38-11.69-2.87-20.42-1.87-25.93,3l-2.64-3c6.55-5.75,16.48-7,29.52-3.84,1.78.43,3.56.91,5.34,1.4,7.39,2,15,4.06,22.34,2.68.39-.07.77-.16,1.16-.24a16.92,16.92,0,0,1,4.68-.55,6.7,6.7,0,0,1,6.08,4Z" transform="translate(-9.66 -5.93)" fill="#9d8301"/><path d="M174.41,96.77l-2.19-3.35c8.23-5.38,18.91-7.78,31.76-7.15a179.88,179.88,0,0,1,21.45,2.8c3.36.58,6.83,1.18,10.25,1.66,2.29.33,4.68.57,6.43-.36L244,93.9c-2.81,1.5-5.93,1.21-8.88.79-3.47-.49-7-1.09-10.36-1.68a177.14,177.14,0,0,0-21-2.75C191.8,89.68,181.92,91.86,174.41,96.77Z" transform="translate(-9.66 -5.93)" fill="#9d8301"/><path d="M136,186.92a8.54,8.54,0,0,1-7.6-3.92l3.45-2c1.14,1.94,4.19,2.34,6.37,1.58,2.72-.95,5-3.29,7-5.35,4.64-4.7,9.43-9.57,12.25-15.52,3.58-7.57,3.67-16,3.77-24.93.07-6.38.14-13,1.59-19.32,1.22-5.29,3.28-9.53,6.14-12.61,7.12-7.65,18.62-8.21,28.85-8.15l45,.31,0,4-45-.31c-9.8-.07-19.88.41-25.89,6.87a23.39,23.39,0,0,0-5.17,10.78c-1.35,5.92-1.42,12.3-1.49,18.47-.1,9-.2,18.24-4.16,26.6-3.1,6.56-8.37,11.91-13,16.62-2.22,2.26-5,5.06-8.59,6.32A11.07,11.07,0,0,1,136,186.92Z" transform="translate(-9.66 -5.93)" fill="#9d8301"/><path d="M121.26,162.48c-4.8,0-9.77-2.88-13.86-8.1-3.09-3.95-4.41-7.55-4.05-11,.33-3.16,2.1-6.24,5.42-9.4a24.89,24.89,0,0,1,7.26-5c5.55-2.38,11.5-1.79,17.25-1.22,4.63.46,9,.89,13.14-.13l1,3.89c-4.8,1.18-9.73.69-14.5.22-5.48-.55-10.66-1.06-15.27.92a20.85,20.85,0,0,0-6.08,4.24c-2.6,2.48-4,4.75-4.2,6.92-.25,2.39.8,5,3.22,8.14,1.72,2.2,6.32,7.23,11.75,6.5l.54,4A12,12,0,0,1,121.26,162.48Z" transform="translate(-9.66 -5.93)" fill="#9d8301"/><path d="M131.4,160.09l-7-3.38c-2-1-6.77-3.31-7.08-7.81-.2-3,1.63-5.78,5.13-8,8.76-5.41,20.06-4.62,28.32-4l-.28,4c-10-.7-18.85-.92-25.93,3.45-.8.5-3.38,2.26-3.24,4.28s2.65,3.41,4.83,4.48l7,3.39Z" transform="translate(-9.66 -5.93)" fill="#9d8301"/><path d="M156.56,182.79l-2.29-3.28c6.85-4.77,12-13.1,14.4-23.46,2-8.48,2.17-17.48,2.34-26.18l.06-2.87a28.47,28.47,0,0,1,1-7.92c2.57-8.27,11-12.41,17.66-14.43,17.41-5.29,37.46-3.08,55,6.06,4.38,2.28,9.65,5.62,11.57,11.28,1.78,5.23,0,10.89-1.26,15-2.49,8-5.59,18-13,24.47-6.86,6-17.2,8.66-29.9,7.69-9.08-.69-16.11-2.87-21.51-6.65-7.06-4.94-11-12.94-10.11-20.36l4,.49c-.74,6,2.57,12.49,8.43,16.59,4.8,3.36,11.18,5.3,19.53,5.94,8.09.62,19.33,0,27-6.71,6.55-5.73,9.46-15.11,11.8-22.65,1.46-4.67,2.55-8.84,1.29-12.55-1.46-4.31-5.91-7.08-9.62-9-16.64-8.66-35.6-10.77-52-5.78-4.68,1.42-12.85,4.85-15,11.79a25.14,25.14,0,0,0-.78,6.81l-.06,2.86c-.17,8.92-.35,18.13-2.44,27C169.91,168.28,164.22,177.46,156.56,182.79Z" transform="translate(-9.66 -5.93)" fill="#9d8301"/><path d="M212.87,155.28c-6.6,0-12-1.58-16.21-4.73-5.22-3.92-8.13-10.17-10.47-15.19l3.63-1.69c2.26,4.86,4.82,10.36,9.24,13.69s10.87,4.57,19,3.59c16.93-2,21.53-11.3,22.54-14.09a11.59,11.59,0,0,0,.1-8.22c-1.23-3-4.19-5.51-9-7.71a55.34,55.34,0,0,0-38.32-2.62c-2.76.83-6.71,2.27-9.13,5.13-1.86,2.2-2.86,5.9-1.07,8.44l-3.27,2.31c-3-4.23-1.61-9.91,1.28-13.33,3.11-3.68,7.8-5.4,11-6.38a59.37,59.37,0,0,1,41.12,2.81c5.81,2.65,9.43,5.86,11.07,9.82a15.44,15.44,0,0,1,0,11.1c-3.21,8.91-12.86,15.15-25.82,16.71A47.37,47.37,0,0,1,212.87,155.28Z" transform="translate(-9.66 -5.93)" fill="#9d8301"/><path d="M223.73,137.69a35.18,35.18,0,0,0-4.13-.05c-3.34.08-6.8.17-9.94-1.65a18.17,18.17,0,0,1-3.79-3.17c-.39-.4-.79-.8-1.2-1.18a18.87,18.87,0,0,0-4.41-3l1.79-3.58a22.65,22.65,0,0,1,5.34,3.7c.46.42.89.86,1.33,1.3a15,15,0,0,0,2.94,2.52c2.16,1.25,4.92,1.18,7.84,1.11a39.19,39.19,0,0,1,4.59.07Z" transform="translate(-9.66 -5.93)" fill="#9d8301"/><path d="M142.12,201.7c-13.45,0-27.07-7-33.85-18.7l3.46-2c8.34,14.41,28.21,20.82,43.4,14a71.93,71.93,0,0,0,9.92-5.83c4.49-3,9.13-6,14.5-7.62,6.52-1.92,13.28-1.41,19.81-.93a84.21,84.21,0,0,0,12,.34,41.1,41.1,0,0,0,29-15.29l3.14,2.48A45.15,45.15,0,0,1,211.6,185a87.18,87.18,0,0,1-12.54-.34c-6.46-.48-12.56-.93-18.38.78-4.79,1.41-9,4.18-13.42,7.12a75.61,75.61,0,0,1-10.49,6.14A35.79,35.79,0,0,1,142.12,201.7Z" transform="translate(-9.66 -5.93)" fill="#9d8301"/><path d="M135.79,113.05A36.43,36.43,0,0,1,152,100.94" transform="translate(-9.66 -5.93)" fill="none" stroke="#9d8301" stroke-miterlimit="10" stroke-width="4"/><path d="M123.7,111.39l-3.64-1.64c3.32-7.4,9.07-13.16,14.26-17.83C140,86.84,147.58,81,156.4,81.3l-.12,4c-7.4-.19-14.19,5-19.28,9.61C132.12,99.28,126.73,104.67,123.7,111.39Z" transform="translate(-9.66 -5.93)" fill="#9d8301"/><path d="M241.43,170.36l-2.68-3A83.25,83.25,0,0,0,261.54,133a16.31,16.31,0,0,0,1.13-5,15.3,15.3,0,0,0-2.1-6.92,49.68,49.68,0,0,0-11-14.22l2.67-3a53.59,53.59,0,0,1,11.89,15.36,19.16,19.16,0,0,1,2.55,8.81,19.88,19.88,0,0,1-1.35,6.27A87.39,87.39,0,0,1,241.43,170.36Z" transform="translate(-9.66 -5.93)" fill="#9d8301"/><path d="M147.26,213.34a14.83,14.83,0,0,1-6.66-1.51l1.77-3.59c5.07,2.5,10.87.25,17-2.14a68.91,68.91,0,0,1,8.2-2.8c6.71-1.67,13.61-.93,20.28-.22l1.19.13c14.3,1.52,29.14,1.92,40.75-5.36,8.8-5.52,14.27-14.42,20.07-23.83,3.94-6.41,8-13,13.26-18.56l2.9,2.75c-5,5.22-8.92,11.67-12.76,17.9-5.78,9.4-11.75,19.11-21.35,25.13-12.63,7.92-28.27,7.54-43.29,5.95l-1.2-.13c-6.32-.68-12.86-1.38-18.89.12a65.81,65.81,0,0,0-7.71,2.65C156.35,211.57,151.79,213.34,147.26,213.34Z" transform="translate(-9.66 -5.93)" fill="#9d8301"/><path d="M182,194.53l-1.18-3.82c5.12-1.57,10.43-1.52,15.56-1.48,2.07,0,4.22,0,6.28,0a56.47,56.47,0,0,0,25.39-7.34l2,3.47a60.55,60.55,0,0,1-27.19,7.87c-2.18.09-4.37.07-6.5,0C191.33,193.19,186.56,193.14,182,194.53Z" transform="translate(-9.66 -5.93)" fill="#9d8301"/><path d="M199.34,174A26.25,26.25,0,0,1,177,161.18l3.47-2a22,22,0,0,0,21.46,10.64l.52,4A22.61,22.61,0,0,1,199.34,174Z" transform="translate(-9.66 -5.93)" fill="#9d8301"/><path d="M205.75,232.29c-1.66,0-3.31,0-4.91,0-6.06-.07-12.32-.14-18.41-1.78-7-1.88-12.61-5.71-15.75-10.78l3.4-2.11c2.6,4.2,7.36,7.41,13.39,9,5.6,1.51,11.6,1.58,17.41,1.64,9.19.11,19.6.23,28.54-3.44,12.23-5,20.69-16.43,28-28,5.1-8.07,9-15,11.29-22.59,1.87-6.11,3.39-15.26,0-24.1a27.19,27.19,0,0,0-5.61-9l2.91-2.75a31.44,31.44,0,0,1,6.44,10.31c3.77,9.89,2.12,20,.07,26.69-2.6,8.49-7.18,16.34-11.74,23.56-7.68,12.14-16.61,24.12-29.88,29.57C222.87,231.82,214,232.29,205.75,232.29Z" transform="translate(-9.66 -5.93)" fill="#9d8301"/><path d="M201.5,218.59c-9.56,0-17.84-1.71-25.06-5.16l1.73-3.6c10.65,5.08,24,6.09,40.76,3.07,7.62-1.37,17-3.85,22.09-10.85l3.24,2.35c-5.9,8.15-16.26,10.93-24.62,12.43A101.92,101.92,0,0,1,201.5,218.59Z" transform="translate(-9.66 -5.93)" fill="#9d8301"/><path d="M204.32,226.5l-2.38,0c-5.33-.07-10.13-.23-14.89-1.39a46.69,46.69,0,0,1-11.45-4.67,69.55,69.55,0,0,1-11.27-7.75l2.58-3.06a66.52,66.52,0,0,0,10.62,7.31A42.83,42.83,0,0,0,188,221.21c4.35,1.06,8.91,1.2,14,1.27a56,56,0,0,0,8.49-.33c5.08-.72,10-2.86,14.72-4.94a29.32,29.32,0,0,0,6.07-3.23l2.42,3.19a32.62,32.62,0,0,1-6.88,3.71c-5,2.18-10.14,4.43-15.77,5.23A48.87,48.87,0,0,1,204.32,226.5Z" transform="translate(-9.66 -5.93)" fill="#9d8301"/><path d="M193.48,238.36h-.82a59.48,59.48,0,0,1-38.86-15.83c-1.74-1.62-4-4.14-3.58-7.32l4,.51c-.14,1,.61,2.27,2.34,3.89a55.35,55.35,0,0,0,36.22,14.75c2.56.06,6.2-.11,8.29-2.17l2.81,2.85C200.94,237.9,196.7,238.36,193.48,238.36Z" transform="translate(-9.66 -5.93)" fill="#9d8301"/><path d="M272.63,136.47l-3.94-.69a36.48,36.48,0,0,0-16.61-36.61l2.08-3.41A40.54,40.54,0,0,1,272.63,136.47Z" transform="translate(-9.66 -5.93)" fill="#9d8301"/><path d="M118,166.29l-.7-3.94c11-2,19.4-10.94,27.74-20.75a12.61,12.61,0,0,0,2.39-3.5,13,13,0,0,0,.57-3.52l2.64-37.82c.45-6.36,1-13.58,4.57-19.69,4.88-8.26,15-13.41,27.66-14.13l.23,4c-5.37.31-18.5,2.1-24.45,12.18-3.13,5.3-3.6,12-4,17.93L152,134.86a16.26,16.26,0,0,1-.81,4.65,16.34,16.34,0,0,1-3.09,4.69C139.26,154.57,130.32,164.07,118,166.29Z" transform="translate(-9.66 -5.93)" fill="#9d8301"/><path d="M144.81,118.76c-5.31-2.91-10.8-5.92-16.7-7.21-6.31-1.38-12.27-.4-16.36,2.68l-2.41-3.2c5-3.78,12.17-5,19.63-3.39,6.46,1.41,12.21,4.57,17.77,7.62Z" transform="translate(-9.66 -5.93)" fill="#9d8301"/><path d="M248.38,119.64c-2.7-4.3-5.77-9.17-7-14.65a46.37,46.37,0,0,1-.79-9.33,50.15,50.15,0,0,0-.48-7.45,24.34,24.34,0,0,0-11-16.49c-5.31-3.29-12.27-4.74-20.72-4.3-7.26.38-17.57,2.25-25.54,9-7.2,6.15-10.78,15.71-8.89,23.79l-3.89.91c-2.26-9.64,1.74-20.53,10.18-27.74,8.82-7.53,20.06-9.6,27.93-10,9.27-.48,17,1.17,23,4.9a28.44,28.44,0,0,1,12.88,19.23,53.7,53.7,0,0,1,.53,8,43.81,43.81,0,0,0,.69,8.53c1.05,4.81,3.8,9.16,6.46,13.38Z" transform="translate(-9.66 -5.93)" fill="#9d8301"/><path d="M250.77,108.39c-1.56-3.89-.59-7.76.35-11.51a26.31,26.31,0,0,0,1.07-6.48,15.89,15.89,0,0,0-2.05-7.16,20.68,20.68,0,0,0-8.1-8.81,13.54,13.54,0,0,0-11.15-1.14,24.28,24.28,0,0,0-4,2.12l-.33.2c-6.78,4.11-14.89,8.23-23.6,7.63l.27-4c7.6.52,15-3.28,21.26-7.06l.33-.2a27.83,27.83,0,0,1,4.67-2.44A17.56,17.56,0,0,1,244,70.94,24.77,24.77,0,0,1,253.7,81.4a19.94,19.94,0,0,1,2.49,8.95A29.67,29.67,0,0,1,255,97.84c-.82,3.28-1.59,6.38-.52,9.06Z" transform="translate(-9.66 -5.93)" fill="#9d8301"/><path d="M243.5,205l-2.16-3.37,8.31-5.33c4.84-3.11,10.33-6.63,13.26-11.82,3.3-5.86,3.39-13.77.27-24.16l-.16-.53c-1.74-5.8-3.92-13-.25-18.77a20.94,20.94,0,0,1,4.77-4.85c.56-.46,1.13-.92,1.67-1.4,1.53-1.35,3.31-3.42,3.15-5.57l4-.29c.22,3-1.33,6-4.48,8.85-.59.52-1.2,1-1.81,1.51a17.63,17.63,0,0,0-3.91,3.9c-2.69,4.2-1,9.93.7,15.46l.16.54c3.46,11.49,3.25,20.41-.62,27.27-3.41,6.06-9.35,9.87-14.58,13.23Z" transform="translate(-9.66 -5.93)" fill="#9d8301"/><path d="M229.36,185.78l-2.56-3.07a38.87,38.87,0,0,1,6.76-4.27l.93-.51c8.43-4.6,13.9-8.93,17.76-14.05,4.83-6.41,6.63-14.08,4.8-20.5l3.85-1.1c2.16,7.63.13,16.6-5.45,24-5.41,7.17-13,11.87-19,15.15l-.94.52A36,36,0,0,0,229.36,185.78Z" transform="translate(-9.66 -5.93)" fill="#9d8301"/><path d="M135.57,209.25a28.62,28.62,0,0,1-5-.41c-6.46-1.11-13.83-5.57-15.74-13l3.88-1c1.46,5.71,7.35,9.17,12.54,10.07,6.05,1,12.3-.39,18.19-2,9.48-2.53,21.73-6.31,32.28-13.18l2.18,3.36c-11,7.17-23.66,11.08-33.44,13.69A58.65,58.65,0,0,1,135.57,209.25Z" transform="translate(-9.66 -5.93)" fill="#9d8301"/><path d="M143,213.72c-3.61-1.21-5.18-5.1-5.11-8.2s1.38-5.81,2.53-8.22l3.27-6.81a32.81,32.81,0,0,1,4.12-7,12.51,12.51,0,0,1,7.62-4.66l.59,3.95a8.6,8.6,0,0,0-5.13,3.26,29.61,29.61,0,0,0-3.59,6.2L144,199c-1,2.14-2.09,4.36-2.14,6.58,0,1.69.78,3.78,2.39,4.32Z" transform="translate(-9.66 -5.93)" fill="#9d8301"/><path d="M165.88,219.27c-2.6-8.14-10.84-13.23-17.73-16.77-1-.53-2.07-1.05-3.12-1.57-7.12-3.56-14.47-7.24-19.44-13.73a10.35,10.35,0,0,1-2.36-5.23,5.68,5.68,0,0,1,3.37-5.9l1.4,3.74a1.83,1.83,0,0,0-.79,1.79,6.55,6.55,0,0,0,1.56,3.17c4.4,5.75,11.34,9.23,18,12.58L150,199c7.57,3.88,16.66,9.56,19.71,19.1Z" transform="translate(-9.66 -5.93)" fill="#9d8301"/><path d="M201.33,218H200a86.39,86.39,0,0,1-27-4.87l1.33-3.77A82.27,82.27,0,0,0,200,214c6.9.12,11.66-.81,15.46-3,7.17-4.19,10.56-14,7.73-22.22-2.7-7.88-10.76-13.93-19.6-14.7l.35-4c10.36.91,19.84,8.06,23,17.4,3.43,10-.74,21.85-9.49,27C212.25,217.46,206,218,201.33,218Z" transform="translate(-9.66 -5.93)" fill="#9d8301"/><path d="M175.7,158.2c-1.77-8.73-3.2-18.65,2.41-25.93a24.23,24.23,0,0,1,8.66-6.65c18-9.11,41.27-6.4,56.66,6.6l-2.58,3.05c-14.2-12-35.7-14.49-52.27-6.08a20.43,20.43,0,0,0-7.3,5.52c-4.58,5.94-3.26,14.83-1.66,22.7Z" transform="translate(-9.66 -5.93)" fill="#9d8301"/><path d="M137.27,82.37Q128.14,85,119.07,88a1.51,1.51,0,0,0-1.33,1.82v9a156,156,0,0,0,24.75-10.74c-.83-1.14-.9-2.64-1.21-4s-1.08-2.88-2.47-3.14a4.05,4.05,0,0,0-2.13.34,38,38,0,0,0-5.09,2.28" transform="translate(-9.66 -5.93)" fill="#9d8301"/><path d="M223.61,100.88a5.38,5.38,0,0,0,.26,3.3c.9,1.88,3.18,2.57,5.2,3.06,1.42.35,3.35.46,3.92-.89.35-.83.12-2.09,1-2.39a34.45,34.45,0,0,1-.61,10.23,14.94,14.94,0,0,0,6.41,2.16q1-6.64,1.48-13.33l2.17,5.87a1.89,1.89,0,0,0,.74,1.11,1.86,1.86,0,0,0,.91.18,62.28,62.28,0,0,0,10-.54,2,2,0,0,0,1.18-.43c4.36-4.3-5.29-16.73-9.66-18.25C238.2,88,225.44,90.78,223.61,100.88Z" transform="translate(-9.66 -5.93)" fill="#9d8301"/><path d="M223.61,100.88a5.38,5.38,0,0,0,.26,3.3c.9,1.88,3.18,2.57,5.2,3.06,1.42.35,3.35.46,3.92-.89.35-.83.12-2.09,1-2.39a34.45,34.45,0,0,1-.61,10.23,14.94,14.94,0,0,0,6.41,2.16q1-6.64,1.48-13.33l2.17,5.87a1.89,1.89,0,0,0,.74,1.11,1.86,1.86,0,0,0,.91.18,62.28,62.28,0,0,0,10-.54,2,2,0,0,0,1.18-.43c4.36-4.3-5.29-16.73-9.66-18.25C238.2,88,225.44,90.78,223.61,100.88Z" transform="translate(-9.66 -5.93)" fill="url(#linear-gradient-5)"/><path d="M162.2,183.17A5.49,5.49,0,0,0,163,180c-.29-2.07-2.25-3.41-4-4.5-1.25-.76-3-1.45-4-.34-.59.68-.75,2-1.65,2a34.28,34.28,0,0,1,3.69-9.57,15,15,0,0,0-5.46-4q-2.92,6-5.46,12.26l-.28-6.25a1.45,1.45,0,0,0-1.17-1.73,64,64,0,0,0-9.72-2.54,2,2,0,0,0-1.27.05c-5.45,2.77,0,17.54,3.67,20.33C144.39,191,157.38,192.24,162.2,183.17Z" transform="translate(-9.66 -5.93)" fill="#9d8301"/><path d="M162.2,183.17A5.49,5.49,0,0,0,163,180c-.29-2.07-2.25-3.41-4-4.5-1.25-.76-3-1.45-4-.34-.59.68-.75,2-1.65,2a34.28,34.28,0,0,1,3.69-9.57,15,15,0,0,0-5.46-4q-2.92,6-5.46,12.26l-.28-6.25a1.45,1.45,0,0,0-1.17-1.73,64,64,0,0,0-9.72-2.54,2,2,0,0,0-1.27.05c-5.45,2.77,0,17.54,3.67,20.33C144.39,191,157.38,192.24,162.2,183.17Z" transform="translate(-9.66 -5.93)" fill="url(#linear-gradient-6)"/><path d="M239.11,207.21a5.48,5.48,0,0,0-.74-3.23c-1.17-1.72-3.52-2.07-5.59-2.26-1.46-.14-3.38,0-3.75,1.44-.23.88.19,2.09-.61,2.51a34.72,34.72,0,0,1-.89-10.21,14.91,14.91,0,0,0-6.66-1.2q0,6.7.48,13.4l-3-5.49a2,2,0,0,0-.89-1,1.94,1.94,0,0,0-.93,0,63.52,63.52,0,0,0-9.84,2,2,2,0,0,0-1.11.6c-3.69,4.89,7.67,15.78,12.22,16.66C226.54,222.06,238.77,217.47,239.11,207.21Z" transform="translate(-9.66 -5.93)" fill="#9d8301"/><path d="M239.11,207.21a5.48,5.48,0,0,0-.74-3.23c-1.17-1.72-3.52-2.07-5.59-2.26-1.46-.14-3.38,0-3.75,1.44-.23.88.19,2.09-.61,2.51a34.72,34.72,0,0,1-.89-10.21,14.91,14.91,0,0,0-6.66-1.2q0,6.7.48,13.4l-3-5.49a2,2,0,0,0-.89-1,1.94,1.94,0,0,0-.93,0,63.52,63.52,0,0,0-9.84,2,2,2,0,0,0-1.11.6c-3.69,4.89,7.67,15.78,12.22,16.66C226.54,222.06,238.77,217.47,239.11,207.21Z" transform="translate(-9.66 -5.93)" fill="url(#linear-gradient-7)"/><path d="M264.78,149.26a5.41,5.41,0,0,0-2.26-2.42c-1.87-.91-4.08,0-6,.85-1.33.61-2.91,1.72-2.52,3.13.24.87,1.22,1.71.74,2.48a34.35,34.35,0,0,1-5.9-8.39,15,15,0,0,0-6.36,2.3q3.38,5.79,7.14,11.36l-5.35-3.25a2,2,0,0,0-1.27-.41,1.91,1.91,0,0,0-.82.43,63.49,63.49,0,0,0-7.52,6.66,2,2,0,0,0-.66,1.08c-.73,6.07,14.56,9.79,18.93,8.26C261.37,168.41,269.64,158.3,264.78,149.26Z" transform="translate(-9.66 -5.93)" fill="#9d8301"/><path d="M264.78,149.26a5.41,5.41,0,0,0-2.26-2.42c-1.87-.91-4.08,0-6,.85-1.33.61-2.91,1.72-2.52,3.13.24.87,1.22,1.71.74,2.48a34.35,34.35,0,0,1-5.9-8.39,15,15,0,0,0-6.36,2.3q3.38,5.79,7.14,11.36l-5.35-3.25a2,2,0,0,0-1.27-.41,1.91,1.91,0,0,0-.82.43,63.49,63.49,0,0,0-7.52,6.66,2,2,0,0,0-.66,1.08c-.73,6.07,14.56,9.79,18.93,8.26C261.37,168.41,269.64,158.3,264.78,149.26Z" transform="translate(-9.66 -5.93)" fill="url(#linear-gradient-8)"/><path d="M192,146a5.41,5.41,0,0,0-2.26-2.42c-1.87-.91-4.08,0-6,.85-1.33.61-2.91,1.72-2.52,3.13.24.87,1.22,1.71.74,2.47a34.3,34.3,0,0,1-5.9-8.38,15,15,0,0,0-6.36,2.3q3.38,5.79,7.14,11.36L171.49,152a2,2,0,0,0-1.27-.41,1.91,1.91,0,0,0-.82.43,64.29,64.29,0,0,0-7.52,6.66,2,2,0,0,0-.66,1.08c-.73,6.07,14.56,9.79,18.93,8.26C188.56,165.12,196.83,155,192,146Z" transform="translate(-9.66 -5.93)" fill="#9d8301"/><path d="M192,146a5.41,5.41,0,0,0-2.26-2.42c-1.87-.91-4.08,0-6,.85-1.33.61-2.91,1.72-2.52,3.13.24.87,1.22,1.71.74,2.47a34.3,34.3,0,0,1-5.9-8.38,15,15,0,0,0-6.36,2.3q3.38,5.79,7.14,11.36L171.49,152a2,2,0,0,0-1.27-.41,1.91,1.91,0,0,0-.82.43,64.29,64.29,0,0,0-7.52,6.66,2,2,0,0,0-.66,1.08c-.73,6.07,14.56,9.79,18.93,8.26C188.56,165.12,196.83,155,192,146Z" transform="translate(-9.66 -5.93)" fill="url(#linear-gradient-9)"/><path d="M122.56,127.17c1.73,1.56,4.28,1.65,6.61,1.61q6.72-.12,13.42-.72a3.87,3.87,0,0,1,1.4.05c1.18.36,1.72,1.78,2.81,2.37,1.71.91,3.87-.86,4-2.79s-1-3.71-2.18-5.22c-4.35-5.4-12-10.78-19.31-10.17C123.66,112.77,117.48,122.58,122.56,127.17Z" transform="translate(-9.66 -5.93)" fill="url(#linear-gradient-10)"/><path d="M128.07,126.23a5.4,5.4,0,0,0,2.8,1.75c2,.4,4-1,5.56-2.35,1.13-.93,2.37-2.41,1.63-3.67-.46-.78-1.62-1.34-1.35-2.21a34.25,34.25,0,0,1,7.85,6.6,15,15,0,0,0,5.56-3.87q-4.76-4.73-9.82-9.14l6,1.77a2,2,0,0,0,1.34.07,2,2,0,0,0,.68-.63,63.3,63.3,0,0,0,5.56-8.37,2,2,0,0,0,.36-1.21c-.86-6-16.59-5.72-20.42-3.12C126.45,106.84,121.05,118.73,128.07,126.23Z" transform="translate(-9.66 -5.93)" fill="#9d8301"/><path d="M128.07,126.23a5.4,5.4,0,0,0,2.8,1.75c2,.4,4-1,5.56-2.35,1.13-.93,2.37-2.41,1.63-3.67-.46-.78-1.62-1.34-1.35-2.21a34.25,34.25,0,0,1,7.85,6.6,15,15,0,0,0,5.56-3.87q-4.76-4.73-9.82-9.14l6,1.77a2,2,0,0,0,1.34.07,2,2,0,0,0,.68-.63,63.3,63.3,0,0,0,5.56-8.37,2,2,0,0,0,.36-1.21c-.86-6-16.59-5.72-20.42-3.12C126.45,106.84,121.05,118.73,128.07,126.23Z" transform="translate(-9.66 -5.93)" fill="url(#linear-gradient-11)"/><path d="M198.12,87.51a12.33,12.33,0,0,1-1.27,4.58,11.62,11.62,0,0,1-3.48,3.64,27.73,27.73,0,0,1-15.62,4.84,17.56,17.56,0,0,1-7.5-1.23,8.82,8.82,0,0,1-5-5.44,1.73,1.73,0,0,1,0-1A2,2,0,0,1,166,92l6.7-4.66a2.4,2.4,0,0,0,1.08-1.19,2.36,2.36,0,0,0-.23-1.51q-1.92-5-4.17-9.94c-.4-.88-.79-2-.16-2.74a2.61,2.61,0,0,1,1.15-.67c2.62-1,5.46-1.91,8.12-1.09,3.22,1,5.15,4.24,8,6a9.72,9.72,0,0,0,5.11,1.46c1.39,0,3.38-1.06,4.68-.62C199.14,78,198.38,85.19,198.12,87.51Z" transform="translate(-9.66 -5.93)" fill="url(#linear-gradient-12)"/><path d="M197.51,70.5a5.41,5.41,0,0,0-2.26-2.42c-1.87-.91-4.08,0-6,.84-1.33.62-2.91,1.72-2.52,3.14.25.86,1.22,1.71.74,2.47a34.63,34.63,0,0,1-5.9-8.39,15,15,0,0,0-6.36,2.31q3.39,5.79,7.14,11.35L177,76.56a1.9,1.9,0,0,0-1.27-.41,2,2,0,0,0-.82.42,63.47,63.47,0,0,0-7.52,6.67,2.06,2.06,0,0,0-.66,1.07c-.73,6.08,14.56,9.8,18.93,8.27C194.1,89.64,202.37,79.54,197.51,70.5Z" transform="translate(-9.66 -5.93)" fill="#9d8301"/><path d="M197.51,70.5a5.41,5.41,0,0,0-2.26-2.42c-1.87-.91-4.08,0-6,.84-1.33.62-2.91,1.72-2.52,3.14.25.86,1.22,1.71.74,2.47a34.63,34.63,0,0,1-5.9-8.39,15,15,0,0,0-6.36,2.31q3.39,5.79,7.14,11.35L177,76.56a1.9,1.9,0,0,0-1.27-.41,2,2,0,0,0-.82.42,63.47,63.47,0,0,0-7.52,6.67,2.06,2.06,0,0,0-.66,1.07c-.73,6.08,14.56,9.8,18.93,8.27C194.1,89.64,202.37,79.54,197.51,70.5Z" transform="translate(-9.66 -5.93)" fill="url(#linear-gradient-13)"/><circle cx="207.04" cy="109.5" r="4.86" fill="url(#linear-gradient-14)"/><circle cx="178.05" cy="104.64" r="4.86" fill="url(#linear-gradient-15)"/><circle cx="131.83" cy="140.55" r="4.86" fill="url(#linear-gradient-16)"/><circle cx="200.32" cy="156.71" r="4.86" fill="url(#linear-gradient-17)"/><circle cx="233.77" cy="134.1" r="4.86" fill="url(#linear-gradient-18)"/><circle cx="173.33" cy="191.55" r="4.86" fill="url(#linear-gradient-19)"/><circle cx="111.02" cy="131.18" r="4.86" fill="url(#linear-gradient-20)"/><path d="M254.78,200.18a30.47,30.47,0,0,0,8.37-.17l-1-17.52a3.38,3.38,0,0,0-.76-2.36.62.62,0,0,0-.45-.21.76.76,0,0,0-.37.18c-2.26,1.67-6.14,4.31-6,7.34C254.67,191.68,254.56,195.93,254.78,200.18Z" transform="translate(-9.66 -5.93)" fill="#9d8301"/><path d="M107,147.47a2,2,0,0,0-1.32.39,2,2,0,0,0-.5,1.06,36.62,36.62,0,0,0,.06,17.35,63.37,63.37,0,0,1,22.14-3.45,6.68,6.68,0,0,0,3.92-.67,5.32,5.32,0,0,0,1.76-2.43c1-2.31,2.07-6,1.13-8.32-3.55,2.09-8-1.34-11.73-2.33A50.07,50.07,0,0,0,107,147.47Z" transform="translate(-9.66 -5.93)" fill="#9d8301"/><path d="M206.4,118.24l-6-.37a6.29,6.29,0,0,0-2.63.2,6.44,6.44,0,0,0-2.43,2l-9.16,10.64c-1.22,1.41-2.43,2.83-3.5,4.35a2.14,2.14,0,0,0-.53,1.82c.82,2.38,8.35,3.19,10.48,3.56,2.33.41,5.28,1,7.44-.33,2.64-1.65,2.85-5.44,3.42-8.17Q205,125.1,206.4,118.24Z" transform="translate(-9.66 -5.93)" fill="#9d8301"/><path d="M203.17,72.7A17.12,17.12,0,0,1,199,65.2l6.54-5.08a1.61,1.61,0,0,1,.85-.43,1.72,1.72,0,0,1,.87.25l19.9,10.19c.32.16.66.35.75.69a1.26,1.26,0,0,1-.44,1.08,30.47,30.47,0,0,1-13.24,8.23c-2.58.78-3.26-.75-5.08-2.4S205,74.58,203.17,72.7Z" transform="translate(-9.66 -5.93)" fill="#9d8301"/><path d="M165.66,201.11a2,2,0,0,1,1-.63,2,2,0,0,1,1.26.29l8.21,3.86c2.74,1.3,5.6,2.68,7.41,5.1a197,197,0,0,1-22.44,16,5,5,0,0,1-2.42.93,4.84,4.84,0,0,1-1.89-.51c-1.86-.79-7.28-2.25-8.17-4.18-1.13-2.48,2.15-5.1,3.59-6.73Q158.65,207.88,165.66,201.11Z" transform="translate(-9.66 -5.93)" fill="#9d8301"/><path d="M101.64,177.61c-1.39,8.13,2.46,16.19,6.73,23.25a170.39,170.39,0,0,0,22.91-10c2.56-1.34-4-10.84-6.72-11.83C122.62,178.36,101.86,176.28,101.64,177.61Z" transform="translate(-9.66 -5.93)" fill="#9d8301"/><path d="M190.57,176.25a2.24,2.24,0,0,0-1,.69c-.43.68,0,1.56.46,2.23a34.26,34.26,0,0,0,6.78,7.34,4.25,4.25,0,0,0,2.37,1.16,4.46,4.46,0,0,0,2.11-.63,90.8,90.8,0,0,0,14.7-9.17c4.35-3.33,8.51-5.86,4.08-11.11-3.61-4.28-8.33-.43-12.42,1.48C202,170.91,196.26,173.55,190.57,176.25Z" transform="translate(-9.66 -5.93)" fill="#9d8301"/><path d="M137.27,82.37Q128.14,85,119.07,88a1.51,1.51,0,0,0-1.33,1.82v9a156,156,0,0,0,24.75-10.74c-.83-1.14-.9-2.64-1.21-4s-1.08-2.88-2.47-3.14a4.05,4.05,0,0,0-2.13.34,38,38,0,0,0-5.09,2.28" transform="translate(-9.66 -5.93)" fill="url(#linear-gradient-21)"/><path d="M254.78,200.18a30.47,30.47,0,0,0,8.37-.17l-1-17.52a3.38,3.38,0,0,0-.76-2.36.62.62,0,0,0-.45-.21.76.76,0,0,0-.37.18c-2.26,1.67-6.14,4.31-6,7.34C254.67,191.68,254.56,195.93,254.78,200.18Z" transform="translate(-9.66 -5.93)" fill="url(#linear-gradient-22)"/><path d="M107,147.47a2,2,0,0,0-1.32.39,2,2,0,0,0-.5,1.06,36.62,36.62,0,0,0,.06,17.35,63.37,63.37,0,0,1,22.14-3.45,6.68,6.68,0,0,0,3.92-.67,5.32,5.32,0,0,0,1.76-2.43c1-2.31,2.07-6,1.13-8.32-3.55,2.09-8-1.34-11.73-2.33A50.07,50.07,0,0,0,107,147.47Z" transform="translate(-9.66 -5.93)" fill="url(#linear-gradient-23)"/><path d="M206.4,118.24l-6-.37a6.29,6.29,0,0,0-2.63.2,6.44,6.44,0,0,0-2.43,2l-9.16,10.64c-1.22,1.41-2.43,2.83-3.5,4.35a2.14,2.14,0,0,0-.53,1.82c.82,2.38,8.35,3.19,10.48,3.56,2.33.41,5.28,1,7.44-.33,2.64-1.65,2.85-5.44,3.42-8.17Q205,125.1,206.4,118.24Z" transform="translate(-9.66 -5.93)" fill="url(#linear-gradient-24)"/><path d="M203.17,72.7A17.12,17.12,0,0,1,199,65.2l6.54-5.08a1.61,1.61,0,0,1,.85-.43,1.72,1.72,0,0,1,.87.25l19.9,10.19c.32.16.66.35.75.69a1.26,1.26,0,0,1-.44,1.08,30.47,30.47,0,0,1-13.24,8.23c-2.58.78-3.26-.75-5.08-2.4S205,74.58,203.17,72.7Z" transform="translate(-9.66 -5.93)" fill="url(#linear-gradient-25)"/><path d="M165.66,201.11a2,2,0,0,1,1-.63,2,2,0,0,1,1.26.29l8.21,3.86c2.74,1.3,5.6,2.68,7.41,5.1a197,197,0,0,1-22.44,16,5,5,0,0,1-2.42.93,4.84,4.84,0,0,1-1.89-.51c-1.86-.79-7.28-2.25-8.17-4.18-1.13-2.48,2.15-5.1,3.59-6.73Q158.65,207.88,165.66,201.11Z" transform="translate(-9.66 -5.93)" fill="url(#linear-gradient-26)"/><path d="M101.64,177.61c-1.39,8.13,2.46,16.19,6.73,23.25a170.39,170.39,0,0,0,22.91-10c2.56-1.34-4-10.84-6.72-11.83C122.62,178.36,101.86,176.28,101.64,177.61Z" transform="translate(-9.66 -5.93)" fill="url(#linear-gradient-27)"/><path d="M190.57,176.25a2.24,2.24,0,0,0-1,.69c-.43.68,0,1.56.46,2.23a34.26,34.26,0,0,0,6.78,7.34,4.25,4.25,0,0,0,2.37,1.16,4.46,4.46,0,0,0,2.11-.63,90.8,90.8,0,0,0,14.7-9.17c4.35-3.33,8.51-5.86,4.08-11.11-3.61-4.28-8.33-.43-12.42,1.48C202,170.91,196.26,173.55,190.57,176.25Z" transform="translate(-9.66 -5.93)" fill="url(#linear-gradient-28)"/><path d="M272.94,238.43l-3.2,4.44-15.87-10.94L84.5,115.15c1.08-3.13,2.29-6.22,3.65-9.22L258.36,228Z" transform="translate(-9.66 -5.93)" fill="url(#linear-gradient-29)"/><path d="M269.45,243.85l-3,4.56-18.65-11.79L80.45,130.89c.59-3.36,1.35-6.66,2.25-9.91L252.75,232.86Z" transform="translate(-9.66 -5.93)" fill="url(#linear-gradient-30)"/><polygon points="56.77 81.33 264.71 230.43 261.51 234.87 50.2 89.17 56.77 81.33" fill="#9d8301"/><polygon points="47.48 95.21 261.23 235.84 258.21 240.41 41.23 103.3 47.48 95.21" fill="#9d8301"/><polygon points="53.11 85.7 262.26 233.83 261.51 234.87 50.2 89.17 53.11 85.7" fill="url(#linear-gradient-31)"/><polygon points="44.13 100 258.96 239.37 258.21 240.41 41.23 103.47 44.13 100" fill="url(#linear-gradient-32)"/></svg>