<svg id="Layer_1" data-name="Layer 1" xmlns="http://www.w3.org/2000/svg" viewBox="0 0 400 300"><title>#47 running</title><path d="M182.14,70.07S159.67,71.19,158,83.47s-35.17,37.9-35.17,37.9L134,139.74S190.58,118,182.14,70.07Z" fill="#f4a28c"/><path d="M182.14,70.07S159.67,71.19,158,83.47s-35.17,37.9-35.17,37.9L134,139.74S190.58,118,182.14,70.07Z" opacity="0.08"/><ellipse cx="206.42" cy="265.8" rx="133.31" ry="16.87" fill="#e6e6e6" opacity="0.45"/><path d="M170.45,240.24s-.88,5.71-5,7.77-1.48,8,4.59,3.81a40.48,40.48,0,0,0,5.33-4.36,12.08,12.08,0,0,1,5.51-2.87,2,2,0,0,0,1.41-1.76c.61-3.16-6.64-5.55-6.64-5.55Z" fill="#68e1fd"/><rect x="38.85" y="166.65" width="77.6" height="39.61" fill="#e6e6e6"/><path d="M67.16,182.89a7.75,7.75,0,1,0-14.36,4h0l6.62,10.84L66,187h0A7.66,7.66,0,0,0,67.16,182.89ZM59.41,187a3.79,3.79,0,1,1,3.79-3.79A3.79,3.79,0,0,1,59.41,187Z" fill="#a5a5a5"/><rect x="75.78" y="177.31" width="28.11" height="5.6" fill="#a5a5a5" opacity="0.58"/><rect x="75.78" y="187.86" width="28.11" height="5.6" fill="#a5a5a5" opacity="0.23"/><rect x="277.65" y="32.91" width="77.6" height="39.61" fill="#e6e6e6"/><rect x="314.58" y="43.57" width="28.11" height="5.6" fill="#a5a5a5" opacity="0.58"/><rect x="314.58" y="54.13" width="28.11" height="5.6" fill="#a5a5a5" opacity="0.23"/><path d="M177.6,49.93s-10,21.57,4.42,25.34,10.07-32.81,10.07-32.81Z" fill="#ffd200"/><path d="M179.77,34.77s-2.68,7.63-2.7,13.16A4.07,4.07,0,0,0,181.15,52c2.78,0,6.54-.89,8.47-4.8L193.71,41a7.26,7.26,0,0,0-1.17-8.31C188.94,28.34,181.17,30,179.77,34.77Z" fill="#f4a28c"/><path d="M182.14,70.07S130.74,90.41,154,121.8a26.27,26.27,0,0,1,4.3,8.71c2.82,10.44,12.11,26.11,21.9,41.94l50.06-14.17s-9.81-36.25-6.38-58.18c5.27-33.68-29.4-31.92-29.4-31.92Z" fill="#68e1fd"/><polygon points="192.09 42.46 196.7 68.56 182.14 70.07 184.56 50.97 192.09 42.46" fill="#f4a28c"/><path d="M178.33,39.66l-3,2.46a1.3,1.3,0,0,0,.28,2.17l2.85,1.33Z" fill="#f4a28c"/><path d="M184.49,51.51A9.86,9.86,0,0,0,189,48.75s1.54,5.59-5.2,8.23Z" fill="#ce8172" opacity="0.31"/><path d="M185.5,38.11l3.51.82s-2.19,14.89,4,27c3.92,7.65,14.21,9.24,20.56,3.45l2.75-2.51a6.13,6.13,0,0,0-1.62-10.11c-5.86-2.69-12.19-7.91-12.16-17.92,0-11.78-11.26-17.72-18.68-15S177.83,37.09,185.5,38.11Z" fill="#ffd200"/><path d="M188.68,89.07s-7.55,21.62,7.15,34.92,3,43.19,3,43.19l31.43-8.9s-7.67-28.93-7-43.56S188.68,89.07,188.68,89.07Z" opacity="0.08"/><path d="M187.89,44s1-3.45,3.49-2.52,1.18,5.93-2.48,5.49Z" fill="#f4a28c"/><path d="M197.15,183.91,216,208.18a122.6,122.6,0,0,0,25.17,24.3L269,252.56l3.83-5.88-10.7-11a136.84,136.84,0,0,1-30.32-48.16l-4.4-12Z" fill="#f4a28c"/><path d="M197.15,183.91,216,208.18a122.6,122.6,0,0,0,25.17,24.3L269,252.56l3.83-5.88-10.7-11a136.84,136.84,0,0,1-30.32-48.16l-4.4-12Z" opacity="0.08"/><path d="M193,103.4c-11.13-11.91-1.09-31.71,15-29.29a17.65,17.65,0,0,1,5.24,1.64c6.9,3.43,24.07,12.3,38.09,19.58a35.72,35.72,0,0,1,19.19,34.12L268.46,160s8.24,18.24.17,21.22-10.53-16.94-10.53-16.94l-4.22-26.93A20.53,20.53,0,0,0,235.54,120C222.27,118.8,203.76,114.94,193,103.4Z" fill="#f4a28c"/><path d="M168.17,179h0a20.45,20.45,0,0,0-12.54,27.54l14.63,34.09,6-3.59-7.49-29.13a10.41,10.41,0,0,1,6.61-12.42L187.93,191Z" fill="#f4a28c"/><path d="M167.1,178l8.71,19.52s21.48-6.35,42.47-6.68c6.58-.1,13.09-.55,16.23-3.22-1.36,1.16,8.54-14.28-4.22-29.35l-50.06,14.17A63.67,63.67,0,0,0,167.1,178Z" fill="#24285b"/><path d="M138.13,77.7s.36-8.49,10.19-6.48-5.13,15.56-5.13,15.56,8.63,39.07-5.12,50.44S110.64,123.33,138.13,77.7Z" fill="#f4a28c"/><path d="M269,252.6s3.58,4.64,2.22,9.09,4.84,6.7,6-.7a42.38,42.38,0,0,0,.54-7,12,12,0,0,1,1.75-6.05,2,2,0,0,0-.31-2.27c-1.89-2.66-7.83-.56-7.83-.56Z" fill="#68e1fd"/><path d="M269,252.6s3.58,4.64,2.22,9.09,4.84,6.7,6-.7a42.38,42.38,0,0,0,.54-7,12,12,0,0,1,1.75-6.05,2,2,0,0,0-.31-2.27c-1.89-2.66-7.83-.56-7.83-.56Z" opacity="0.08"/><path d="M200.72,191.45l16.89,20.94,22.7-6.28-5.91-19.57S212.88,184.4,200.72,191.45Z" fill="#24285b"/><path d="M189.8,46.66s-17.34,24-14,36.75S165.14,126.79,191,138c25.51,11,26.49,29.88,26.49,29.88" fill="none" stroke="#fff" stroke-miterlimit="10"/><circle cx="189.8" cy="46.66" r="2.71" fill="#24285b"/><polygon points="212.33 168.68 224.13 165.62 227.83 174.35 216.06 176.67 212.33 168.68" fill="#ffd200"/><polygon points="255.92 150.36 269.03 151.53 268.46 159.97 257.53 160.61 255.92 150.36" fill="#68e1fd"/><path d="M176.69,44.78s-6.85,19,0,27.28" fill="none" stroke="#e8e8e8" stroke-miterlimit="10"/><path d="M291.9,55.54S291,60.47,295,59.8,297,57,296.46,54.33Z" fill="#a5a5a5"/><path d="M291.43,53.26l4.58-1s.18-3.67,0-7.34-3.83-6.71-6.24-4.23S288.28,48.13,291.43,53.26Z" fill="#a5a5a5"/><path d="M300.09,60.07s-2.6,3.66.87,4.62,2.73-1.46,3.3-3.87Z" fill="#a5a5a5"/><path d="M300.58,58l4.12.88s1.54-2.91,2.75-6-.56-6.89-3.46-5.79S300,52.68,300.58,58Z" fill="#a5a5a5"/></svg>