<?xml version="1.0" encoding="iso-8859-1"?>
<!-- Generator: Adobe Illustrator 18.0.0, SVG Export Plug-In . SVG Version: 6.00 Build 0)  -->
<!DOCTYPE svg PUBLIC "-//W3C//DTD SVG 1.1//EN" "http://www.w3.org/Graphics/SVG/1.1/DTD/svg11.dtd">
<svg version="1.1" id="Capa_1" xmlns="http://www.w3.org/2000/svg" xmlns:xlink="http://www.w3.org/1999/xlink" x="0px" y="0px"
	 viewBox="0 0 512 512" style="enable-background:new 0 0 512 512;" xml:space="preserve">
<g>
	<path style="fill:#FFFFFF;" d="M312,152c0-30.879-25.125-56-56-56s-56,25.121-56,56s25.125,56,56,56S312,182.879,312,152z"/>
	<path style="fill:#F69348;" d="M240,238.471c-40.9-7.554-72-43.418-72-86.471V32H80c-17.648,0-32,14.355-32,32v416h192V238.471z"/>
	<path style="fill:#6EBF5D;" d="M312,84.168V32H200v52.168C215.227,71.574,234.742,64,256,64S296.773,71.574,312,84.168z"/>
	<path style="fill:#F69348;" d="M464,64c0-17.645-14.352-32-32-32h-88v120c0,43.053-31.1,78.917-72,86.471V480h192V64z"/>
	<path style="fill:#003B54;" d="M256,168c-8.836,0-16-7.164-16-16v-24c0-8.836,7.164-16,16-16s16,7.164,16,16v24
		C272,160.836,264.836,168,256,168z"/>
	<path style="fill:#003B54;" d="M432,0H328H184H80C44.711,0,16,28.711,16,64v432c0,8.836,7.164,16,16,16h448c8.836,0,16-7.164,16-16
		V64C496,28.711,467.289,0,432,0z M312,32v52.168C296.773,71.574,277.258,64,256,64s-40.773,7.574-56,20.168V32H312z M256,208
		c-30.875,0-56-25.121-56-56s25.125-56,56-56s56,25.121,56,56S286.875,208,256,208z M48,64c0-17.645,14.352-32,32-32h88v120
		c0,43.053,31.1,78.917,72,86.471V480H48V64z M464,480H272V238.471c40.9-7.554,72-43.418,72-86.471V32h88c17.648,0,32,14.355,32,32
		V480z"/>
</g>
<g>
</g>
<g>
</g>
<g>
</g>
<g>
</g>
<g>
</g>
<g>
</g>
<g>
</g>
<g>
</g>
<g>
</g>
<g>
</g>
<g>
</g>
<g>
</g>
<g>
</g>
<g>
</g>
<g>
</g>
</svg>
