<svg id="Layer_1" data-name="Layer 1"
    xmlns="http://www.w3.org/2000/svg"
    xmlns:xlink="http://www.w3.org/1999/xlink" viewBox="0 0 430.22 367.65">
    <defs>
        <linearGradient id="linear-gradient" x1="181.8" y1="20.48" x2="178.96" y2="572.62" gradientUnits="userSpaceOnUse">
            <stop offset="0.01"/>
            <stop offset="0.13" stop-opacity="0.69"/>
            <stop offset="1" stop-opacity="0"/>
        </linearGradient>
        <linearGradient id="linear-gradient-2" x1="242.92" y1="346.23" x2="246.24" y2="318.72" xlink:href="#linear-gradient"/>
        <linearGradient id="linear-gradient-3" x1="86" y1="266.33" x2="102.18" y2="266.33" xlink:href="#linear-gradient"/>
        <linearGradient id="linear-gradient-4" x1="149.93" y1="170.65" x2="232.47" y2="147.41" xlink:href="#linear-gradient"/>
        <linearGradient id="linear-gradient-5" x1="160.79" y1="167.09" x2="230.99" y2="296.11" xlink:href="#linear-gradient"/>
        <linearGradient id="linear-gradient-6" x1="97.81" y1="170.43" x2="257.51" y2="196.68" xlink:href="#linear-gradient"/>
        <linearGradient id="linear-gradient-7" x1="192.84" y1="80.9" x2="189.64" y2="64.77" xlink:href="#linear-gradient"/>
        <linearGradient id="linear-gradient-8" x1="235.24" y1="215.97" x2="208.92" y2="258.66" xlink:href="#linear-gradient"/>
    </defs>
    <title>Jogging</title>
    <path d="M425.35,314.49a74.25,74.25,0,0,1-19.89,27.2c-11.27,9.54-25.18,15.28-38.84,20.86-18.33,7.49-36.76,15-56.13,19.1-18.19,3.85-36.88,4.59-55.47,5.19-62.72,2-127.44,2.33-185.63-21.16C45.48,356,22,341.21,10.83,318c-.55-1.14-1.06-2.29-1.54-3.46-4.9-11.91-6.47-25.07-6.39-38a161.56,161.56,0,0,1,27.64-89.17C51.9,155.82,84,132.52,103.94,100.1c15.23-24.77,24.44-65.33,55.83-74.45,34.31-10,84.78-5.35,118.49,3.77,29.12,7.89,57,25.83,69.61,53.24,9.41,20.46,9.64,44.31,19.72,64.44,6.12,12.21,15.53,22.38,24.18,32.94,19,23.24,35.2,49.93,40,79.58C434.78,278,432.76,297.6,425.35,314.49Z" transform="translate(-2.9 -20.05)" fill="#e2048f" opacity="0.18" style={{isolation: "isolate"}}/><path d="M425.35,314.49a74.25,74.25,0,0,1-19.89,27.2c-11.27,9.54-25.18,15.28-38.84,20.86-18.33,7.49-36.76,15-56.13,19.1-18.19,3.85-36.88,4.59-55.47,5.19-62.72,2-127.44,2.33-185.63-21.16C45.48,356,22,341.21,10.83,318c-.55-1.14-1.06-2.29-1.54-3.46Z" transform="translate(-2.9 -20.05)" fill="#e2048f" opacity="0.49" style={{isolation: "isolate" }}/><path d="M68.87,334.88a7.44,7.44,0,0,0-4.06,1.44c-3.53,3.22,1.44,8.58,5.88,10.36,18.63,7.46,39,9.18,59,10.44q73.8,4.65,147.82,2.55c12.65-.36,26.64-8.21,14.41-20.35C281.8,329.24,267.7,329,254.44,328.09A894.41,894.41,0,0,0,135.93,328Q102.29,330.15,68.87,334.88Z" transform="translate(-2.9 -20.05)" fill="url(#linear-gradient)"/>
    <path d="M223.83,116.42c4.45,6.59,2.51,21.09,6,28.21a7.7,7.7,0,0,0,1.67,2.42c2,1.79,10.6-3.14,12.85-4.11,1.81-.78,2.56-4.19,2.82-6.4a9.3,9.3,0,0,1,.15-1.91c.62-1.93,3.67-1.93,4.62-3.73.37-.7.34-1.57.7-2.28a3,3,0,0,1,3.07-1.36,8.69,8.69,0,0,1,3.26,1.38c1.81,1.1,3.67,2.31,4.67,4.17a12.5,12.5,0,0,1,1.13,4.3,24.09,24.09,0,0,1,.24,7.38,8.07,8.07,0,0,1-3.95,5.95c-2.2,1.12-4.78,0-6.79,1.06-1,.49-1.8,1.58-2.79,2.14a30.51,30.51,0,0,1-3.37,1.6c-6.24,2.64-12.6,5.31-19.35,5.86a5.34,5.34,0,0,1-2.81-.33,5.59,5.59,0,0,1-2.06-2.22,85.06,85.06,0,0,1-12.88-46.82C211.31,100.6,221.2,112.52,223.83,116.42Z" transform="translate(-2.9 -20.05)" fill="#f3bd8f"/>
    <path d="M186.21,134.09l-13.27,18s-.33-3.28-.91-6.58c.21-.2.41-.4.61-.61,3.44-3.65,5.21-8.61,5.85-13.57s.24-10-.14-15a15.55,15.55,0,0,1,.45-6.63Z" transform="translate(-2.9 -20.05)" fill="#f3bd8f"/>
    <path d="M200.4,97.84a7.87,7.87,0,0,0,2.16,5.17c2,1.78,4.95,1.68,7.42,2.66a2.25,2.25,0,0,1,.83.52,1.89,1.89,0,0,1,.37.75,6.28,6.28,0,0,1-.29,3.87c-1.35,3.73-5.76,13.42-9.5,14.74s-6.77-5.6-10.7-6.11a8.76,8.76,0,0,1-3.73-1.12,9.14,9.14,0,0,1-2.81-3.53,11.35,11.35,0,0,1-1.5-4.14,4.31,4.31,0,0,1,1.55-3.94,8.06,8.06,0,0,1,1.74-.8,16.21,16.21,0,0,0,2.73-1.37,4.18,4.18,0,0,0,1.94-2.13,5.25,5.25,0,0,0-.1-2.36,21.47,21.47,0,0,1,0-7.87,7.21,7.21,0,0,1,.71-2.22,4.45,4.45,0,0,1,6.94-1.08C200.65,91.18,200.11,94.82,200.4,97.84Z" transform="translate(-2.9 -20.05)" fill="#f3bd8f"/>
    <path d="M212.25,84a16.14,16.14,0,0,1-.44,5.28c-1.26,4.1-5.6,6.74-9.88,6.92a8,8,0,0,1-4.09-.78,9.76,9.76,0,0,1-2-1.51c-3-2.74-5.76-6-6.67-10-.34-1.49-2.75-4.33-2.73-5.86,0-2.26,2.62-3.25,3.48-5.33a11.79,11.79,0,0,1,9.23-7c4.15-.53,8,1.56,11.06,4.17,1.52,1.3,1.29,3.87,1.48,5.83C212,78.43,212.16,81.19,212.25,84Z" transform="translate(-2.9 -20.05)" fill="#f3bd8f"/>
    <path d="M211.13,60.94c1.16,2,1.94,4.27,3.73,5.7.73.58,1.6,1,2.29,1.63a5.29,5.29,0,0,1,.28,7,6.93,6.93,0,0,1-6.94,2.1,10.15,10.15,0,0,1-5.94-4.53c-.89-1.39-1.67-3.08-3.24-3.6a4.5,4.5,0,0,0-3.9,1c-1.12.83-2.06,1.89-3.24,2.62a13.77,13.77,0,0,0-1.95,1.2c-1.84,1.6-1.57,4.48-1.14,6.88-.77.24-.91-1.15-1.59-1.59s-1.45.21-1.57.92a3.12,3.12,0,0,0,.59,2c1.75,3.07,3.82,6.08,4.42,9.57a2.31,2.31,0,0,1-.08,1.4,2.51,2.51,0,0,1-1.51,1.09A8.5,8.5,0,0,1,188,95a3.66,3.66,0,0,1-3-1.58,5,5,0,0,1-.58-2,46.88,46.88,0,0,0-1-6.91c-1.29-4.46-5.13-8.36-4.57-13a14.37,14.37,0,0,1,2.56-5.75,17.7,17.7,0,0,1,2.7-3.55A16.26,16.26,0,0,1,187.52,60a25.32,25.32,0,0,1,8.11-3.12c3.39-.51,6.41.58,9.73.75C208.06,57.75,209.64,58.38,211.13,60.94Z" transform="translate(-2.9 -20.05)" fill="#b55f40"/>
    <path d="M101.13,252a8.6,8.6,0,0,0-4.53,1.6,4.4,4.4,0,0,0,.33,6.56,8.05,8.05,0,0,0,2.91,1.12c11.66,2.76,23.78,2.95,35.75,2.32,3.25-.17,6.5-.4,9.72-.86a70.41,70.41,0,0,0,30.35-11.94,2.76,2.76,0,0,0,1.23-1.39,2.6,2.6,0,0,0-.2-1.52c-1.53-4.34-5.39-10.05-10-11.6-3.43-1.15-7.25,2.17-10.42,3.23a305.41,305.41,0,0,1-34.87,8.86Q111.31,250.44,101.13,252Z" transform="translate(-2.9 -20.05)" fill="#f3bd8f"/>
    <path d="M229.23,295c.05,11.5.13,23.07,2.21,34.38a1.82,1.82,0,0,0,.48,1.11,1.86,1.86,0,0,0,1.45.23l3.95-.47a4.57,4.57,0,0,0,2.27-.68c1-.77,1.23-2.22,1.32-3.5.38-5.78.23-11.59.82-17.34.51-4.95,1.56-9.83,2.3-14.75.9-6.09,1.31-12.25,1.71-18.39l1.71-25.82a2.64,2.64,0,0,0-.35-1.86,2.48,2.48,0,0,0-2-.64A21.37,21.37,0,0,0,232,251.88c-3,2.47-3,4.74-2.91,8.39C229.34,271.83,229.18,283.4,229.23,295Z" transform="translate(-2.9 -20.05)" fill="#f5bd8d"/>
    <path d="M232.12,325.28a2.06,2.06,0,0,0-1.54.78,4.64,4.64,0,0,0-.57,1.79c-.63,3.59-1.26,7.29-.49,10.86a2.52,2.52,0,0,0,.49,1.18,2.74,2.74,0,0,0,1.37.71,75.76,75.76,0,0,0,17,2.66,26.34,26.34,0,0,0,7-.29,6.13,6.13,0,0,0,2.2-.84,2.88,2.88,0,0,0,1.29-1.92,4.2,4.2,0,0,0-1.5-3.23,25.47,25.47,0,0,0-4.25-3.64c-1.29-.88-2.66-1.65-3.9-2.59s-2.24-1.93-3.38-2.88a27.18,27.18,0,0,0-2.79-2,6.88,6.88,0,0,0-1.75-.84,7.82,7.82,0,0,0-2.16-.17c-1.68,0-3.36.14-5,.3C233.58,325.23,232.82,325.18,232.12,325.28Z" transform="translate(-2.9 -20.05)" fill="#e2048f"/>
    <path d="M102.16,261.45A7.73,7.73,0,0,1,100.3,265a23.75,23.75,0,0,0-4.08,9.47c-.55,2.92-.75,6.32-3.1,8.15a2.85,2.85,0,0,1-1.87.69,3,3,0,0,1-1.82-.85c-2.34-2-2.83-5.44-3.06-8.53s-.35-6-.36-9c0-.66,0-1.34,0-2v0a25.58,25.58,0,0,1,1.48-9,10.32,10.32,0,0,1,.62-1.3A4.52,4.52,0,0,1,89.62,251a6.68,6.68,0,0,1,2.21-.72c3.12-.65,6.32-1.3,9.48-.83a.87.87,0,0,1,.56.26.84.84,0,0,1,0,.59,16.91,16.91,0,0,0-.49,5.77,7.83,7.83,0,0,1,0,2.16A7.57,7.57,0,0,1,102.16,261.45Z" transform="translate(-2.9 -20.05)" fill="#e2048f"/>
    <path d="M232.12,325.28a2.06,2.06,0,0,0-1.54.78,4.64,4.64,0,0,0-.57,1.79c-.63,3.59-1.26,7.29-.49,10.86a2.52,2.52,0,0,0,.49,1.18,2.74,2.74,0,0,0,1.37.71,75.76,75.76,0,0,0,17,2.66,26.34,26.34,0,0,0,7-.29,6.13,6.13,0,0,0,2.2-.84,2.88,2.88,0,0,0,1.29-1.92,4.2,4.2,0,0,0-1.5-3.23,25.47,25.47,0,0,0-4.25-3.64c-1.29-.88-2.66-1.65-3.9-2.59s-2.24-1.93-3.38-2.88a27.18,27.18,0,0,0-2.79-2,6.88,6.88,0,0,0-1.75-.84,7.82,7.82,0,0,0-2.16-.17c-1.68,0-3.36.14-5,.3C233.58,325.23,232.82,325.18,232.12,325.28Z" transform="translate(-2.9 -20.05)" fill="url(#linear-gradient-2)"/>
    <path d="M102.16,261.45A7.73,7.73,0,0,1,100.3,265a23.75,23.75,0,0,0-4.08,9.47c-.55,2.92-.75,6.32-3.1,8.15a2.85,2.85,0,0,1-1.87.69,3,3,0,0,1-1.82-.85c-2.34-2-2.83-5.44-3.06-8.53s-.35-6-.36-9c0-.66,0-1.34,0-2v0a25.58,25.58,0,0,1,1.48-9,10.32,10.32,0,0,1,.62-1.3A4.52,4.52,0,0,1,89.62,251a6.68,6.68,0,0,1,2.21-.72c3.12-.65,6.32-1.3,9.48-.83a.87.87,0,0,1,.56.26.84.84,0,0,1,0,.59,16.91,16.91,0,0,0-.49,5.77,7.83,7.83,0,0,1,0,2.16A7.57,7.57,0,0,1,102.16,261.45Z" transform="translate(-2.9 -20.05)" fill="url(#linear-gradient-3)"/>
    <path d="M88.11,252.64a10.32,10.32,0,0,0-.62,1.3,25.58,25.58,0,0,0-1.48,9,44.35,44.35,0,0,1,.39-5.76A7.78,7.78,0,0,1,88.11,252.64Z" transform="translate(-2.9 -20.05)" fill="#e2048f"/>
    <path d="M222.52,202.77a4.94,4.94,0,0,1-.69,2.32,4.62,4.62,0,0,1-3.36,1.42c-12.95,1.37-25.8-3.66-38.83-3.46a22.77,22.77,0,0,1-5.21-.34l.35-.67-5-9.76q-.34-20-.69-39.95a9.73,9.73,0,0,1,.35-3.36,10.18,10.18,0,0,1,2.58-3.43c.21-.2.41-.4.61-.61,3.44-3.65,5.21-8.61,5.85-13.57s.24-10-.14-15a15.55,15.55,0,0,1,.45-6.63c.61-1.65,2.61-4.29,4.61-3.24,1.61.85,1.18,4,1.54,5.5,1.58,6.56,9.44,10.78,15.78,8.52s9.73-10.53,6.8-16.6l5.19.43c.93,10.13,5.57,19.47,8.46,29.22C227.8,155.85,225.19,179.69,222.52,202.77Z" transform="translate(-2.9 -20.05)" fill="#e2048f"/>
    <path d="M222.63,201.85c0,.3-.08.61-.11.92a4.94,4.94,0,0,1-.69,2.32,4.62,4.62,0,0,1-3.36,1.42c-10.28,1.08-20.5-1.86-30.8-3a63.36,63.36,0,0,0-8-.44,22.77,22.77,0,0,1-5.21-.34l.35-.67-1.1-2.16-3.89-7.6q-.34-20-.69-39.95a9.73,9.73,0,0,1,.35-3.36,10.18,10.18,0,0,1,2.58-3.43c.21-.2.41-.4.61-.61,3.44-3.65,5.21-8.61,5.85-13.57a62.6,62.6,0,0,0,.06-12.32c-.06-.9-.13-1.78-.2-2.67a15.55,15.55,0,0,1,.45-6.63c.61-1.65,2.61-4.29,4.61-3.24,1.61.85,1.18,4,1.54,5.5,1.58,6.56,9.44,10.78,15.78,8.52s9.73-10.53,6.8-16.6l5.19.43c.93,10.13,5.57,19.47,8.46,29.22C227.71,155.55,225.25,179.05,222.63,201.85Z" transform="translate(-2.9 -20.05)" fill="url(#linear-gradient-4)"/>
    <path d="M159.65,227.78c-2.68,2.23-6.18,4.44-6.28,7.94a9.24,9.24,0,0,0,1,3.82,67.77,67.77,0,0,0,6.73,12.13c2.49,3.58,6,7.22,10.33,7.06a13,13,0,0,0,5.78-2,64.18,64.18,0,0,0,16.05-12.77c1.39-1.52,2.85-3.2,4.87-3.62a7.6,7.6,0,0,1,3.11.14,25.1,25.1,0,0,1,14.12,8.4c1.63,1.94,3,4.18,5.17,5.53,4.68,2.93,10.75.53,15.7-1.9l7.39-3.63c1.33-.65,2.81-1.48,3.14-2.92a5,5,0,0,0-.79-3.29q-5.14-10.28-10.34-20.53c-2.64-5.21-5.54-15.62-10.41-18.85-5.27-3.49-12-3.78-18.29-4l-20.54-.56c-3.57-.11-8.72-1.1-12,.71C166.69,203.63,167.61,222.31,159.65,227.78Z" transform="translate(-2.9 -20.05)" fill="#e2048f"/>
    <path d="M246.73,245.94c-.32,1.44-1.8,2.27-3.13,2.93l-7.39,3.62a45.19,45.19,0,0,1-4.36,1.91c-3.88,1.44-8,2.1-11.34,0-2.15-1.34-3.54-3.59-5.17-5.53a25.12,25.12,0,0,0-14.12-8.41,8,8,0,0,0-3.11-.13,5,5,0,0,0-1.21.42,13.42,13.42,0,0,0-3.66,3.21,64.37,64.37,0,0,1-16.05,12.76,13.1,13.1,0,0,1-5.78,2c-4.35.16-7.84-3.49-10.33-7.06a67.41,67.41,0,0,1-4.16-6.79q-1.39-2.61-2.57-5.34a9.09,9.09,0,0,1-1-3.82c.1-3.5,3.6-5.7,6.28-7.94,7.72-5.3,7.09-23.05,14-27.9.21-.15.43-.28.65-.41,3.32-1.81,8.47-.82,12-.71l4,.11,16.5.45c5.32.14,10.92.37,15.71,2.53a17.43,17.43,0,0,1,2.57,1.42c4.86,3.23,7.77,13.64,10.41,18.85q5.19,10.24,10.34,20.53A5.09,5.09,0,0,1,246.73,245.94Z" transform="translate(-2.9 -20.05)" fill="url(#linear-gradient-5)"/>
    <path d="M190.88,196.87a8.43,8.43,0,0,1-.46,2,17,17,0,0,1-2.75,4.62L186,205.65a54.32,54.32,0,0,0-7.13,11.86c-2.44,5.56-4,11.6-7.35,16.67a26.77,26.77,0,0,1-14.26,10.62l-.3.08q-1.39-2.61-2.57-5.34a9.09,9.09,0,0,1-1-3.82c.1-3.5,3.6-5.7,6.28-7.94,7.72-5.3,7.09-23.05,14-27.9l-3.89-7.6q-.34-20-.69-39.95a9.73,9.73,0,0,1,.35-3.36,10.18,10.18,0,0,1,2.58-3.43c.21-.2.41-.4.61-.61,3.44-3.65,5.21-8.61,5.85-13.57a62.6,62.6,0,0,0,.06-12.32c.29,0,.58,0,.86.07,5.9.79,3.92,15.72,3.4,20.06-.81,6.74-2.18,13.47-1.83,20.24.56,11,5.55,21.18,8.93,31.65A14.54,14.54,0,0,1,190.88,196.87Z" transform="translate(-2.9 -20.05)" fill="url(#linear-gradient-6)"/>
    <path d="M161.69,122.83a66.75,66.75,0,0,0-3.52,7.15l-6.8,15.39c-1,2.36-2.1,4.81-2.06,7.38.1,5.44,4.95,9.52,9.7,12.18a64,64,0,0,0,17.05,6.55,48.38,48.38,0,0,0,9.19,1.4c1,0,2-.4,2.9-.13,1.26.37,2.17,1.72,3.34,2.29a7.68,7.68,0,0,0,2.77.59,14.88,14.88,0,0,0,5.4-.47,7.34,7.34,0,0,0,4.23-3.22,18,18,0,0,1,.92-1.74,13.62,13.62,0,0,1,1.15-1.26,6.53,6.53,0,0,0,1.8-3.84,4.75,4.75,0,0,0-1.45-3.9c-1.84-1.65-4.63-1.32-7.1-1.27a1.45,1.45,0,0,1-.83-.14c-.34-.19-.49-.59-.7-.92a3.35,3.35,0,0,0-3.64-1,20.11,20.11,0,0,0-3.63,1.73c-3.1,1.51-7.61-.33-10.8-1.14a79.78,79.78,0,0,1-11.47-3.88,6.62,6.62,0,0,1-2.66-1.72c-1.31-1.63,4-12.25,5.4-13.84s-1.61,9.36.31,8.54,4-5.46,5.36-7.06c1.8-2.14,2.1-5.14,2.25-7.95.19-3.5,1.93-22.46-2-22.7-2.54-.16-6.88,3.77-8.67,5.32A32.11,32.11,0,0,0,161.69,122.83Z" transform="translate(-2.9 -20.05)" fill="#f3bd8f"/>
    <path d="M205.5,74.4l-24.94,4.14a2.16,2.16,0,0,1-2.49-1.81l-.15-1a2.15,2.15,0,0,1,1.8-2.44l22.54-3.6h0a7,7,0,0,1,2.85,3.62Z" transform="translate(-2.9 -20.05)" fill="#e2048f"/>
    <path d="M205.5,74.4l-24.94,4.14a2.16,2.16,0,0,1-2.49-1.81l-.15-1a2.15,2.15,0,0,1,1.8-2.44l22.72-3.58.42.33a7.4,7.4,0,0,1,2.64,4.39Z" transform="translate(-2.9 -20.05)" fill="url(#linear-gradient-7)"/>
    <path d="M236.37,252.18c-1.5.76-3,1.51-4.52,2.22-3.88,1.44-8,2.1-11.34,0-2.15-1.34-3.54-3.59-5.17-5.53a25.12,25.12,0,0,0-14.12-8.41,8,8,0,0,0-3.11-.13,5,5,0,0,0-1.21.42c.73-3.39,5.28-6.52,7.61-8.75,1.82-1.75,4.1-3.58,6.57-3.07,1.74.36,3,1.82,4.17,3.17A146,146,0,0,0,236.37,252.18Z" transform="translate(-2.9 -20.05)" fill="url(#linear-gradient-8)"/>
    <path d="M266.74,268.52c-1.4-3.31-2.47-7.6.12-10.09s7.17-1.11,10.39.82a61,61,0,0,1,23.3,25.26,206.31,206.31,0,0,1-3.18-73.18c11.3,12.4,14.78,29.88,17,46.5.93-26.69,2.51-55.29,18.74-76.5,2.23-2.92,5.4-5.91,9-5.32,2.3.37,4.11,2.12,5.58,3.92,9.58,11.7,11.07,27.9,11.26,43a389.94,389.94,0,0,1-2.93,53,55.28,55.28,0,0,1,18.79-36.57c1.17-1,2.62-2,4.12-1.67s2.32,1.83,2.9,3.22c6.81,16.37-1.58,34.75-9.81,50.47,2.07-5,4.37-10.24,8.85-13.23s11.81-2.28,13.87,2.69c.89,2.16.63,4.62.22,6.92a60.22,60.22,0,0,1-14.6,29.67c-2.67,2.94-34.25-2.36-39.42-2.51-12-.34-26.94,2.52-38.52-.6C285.77,309.85,272.83,283,266.74,268.52Z" transform="translate(-2.9 -20.05)" fill="#fff"/>
</svg>